<mxfile host="app.diagrams.net" agent="Mozilla/5.0 (Windows NT 10.0; Win64; x64) AppleWebKit/537.36 (KHTML, like Gecko) Chrome/132.0.0.0 Safari/537.36 Edg/132.0.0.0" version="26.0.10">
  <diagram name="‫עמוד-1‬" id="bFQ_4c-r3vq5s0zwxpI3">
    <mxGraphModel dx="2036" dy="771" grid="1" gridSize="10" guides="1" tooltips="1" connect="1" arrows="1" fold="1" page="1" pageScale="1" pageWidth="827" pageHeight="1169" math="0" shadow="0">
      <root>
        <mxCell id="0" />
        <mxCell id="1" parent="0" />
        <mxCell id="LZg-1GAi4X-xBVxX7d5g-82" value="" style="edgeStyle=orthogonalEdgeStyle;rounded=0;orthogonalLoop=1;jettySize=auto;html=1;" edge="1" parent="1" source="LZg-1GAi4X-xBVxX7d5g-1" target="LZg-1GAi4X-xBVxX7d5g-9">
          <mxGeometry relative="1" as="geometry" />
        </mxCell>
        <mxCell id="LZg-1GAi4X-xBVxX7d5g-1" value="דף&lt;div&gt;רשימות&lt;/div&gt;" style="rounded=0;whiteSpace=wrap;html=1;" vertex="1" parent="1">
          <mxGeometry x="90" y="40" width="120" height="60" as="geometry" />
        </mxCell>
        <mxCell id="LZg-1GAi4X-xBVxX7d5g-14" style="edgeStyle=orthogonalEdgeStyle;rounded=0;orthogonalLoop=1;jettySize=auto;html=1;entryX=1;entryY=0;entryDx=0;entryDy=0;" edge="1" parent="1" source="LZg-1GAi4X-xBVxX7d5g-3" target="LZg-1GAi4X-xBVxX7d5g-6">
          <mxGeometry relative="1" as="geometry">
            <Array as="points">
              <mxPoint x="390" y="181" />
              <mxPoint x="210" y="181" />
            </Array>
          </mxGeometry>
        </mxCell>
        <mxCell id="LZg-1GAi4X-xBVxX7d5g-3" value="Mongo DB" style="shape=cylinder3;whiteSpace=wrap;html=1;boundedLbl=1;backgroundOutline=1;size=15;" vertex="1" parent="1">
          <mxGeometry x="370" y="130" width="60" height="80" as="geometry" />
        </mxCell>
        <mxCell id="LZg-1GAi4X-xBVxX7d5g-33" style="edgeStyle=orthogonalEdgeStyle;rounded=0;orthogonalLoop=1;jettySize=auto;html=1;entryX=1;entryY=0.5;entryDx=0;entryDy=0;" edge="1" parent="1" source="LZg-1GAi4X-xBVxX7d5g-4" target="LZg-1GAi4X-xBVxX7d5g-29">
          <mxGeometry relative="1" as="geometry">
            <Array as="points">
              <mxPoint x="740" y="540" />
            </Array>
          </mxGeometry>
        </mxCell>
        <mxCell id="LZg-1GAi4X-xBVxX7d5g-35" value="סך מילים קשות" style="edgeLabel;html=1;align=center;verticalAlign=middle;resizable=0;points=[];" vertex="1" connectable="0" parent="LZg-1GAi4X-xBVxX7d5g-33">
          <mxGeometry x="0.6" y="2" relative="1" as="geometry">
            <mxPoint as="offset" />
          </mxGeometry>
        </mxCell>
        <mxCell id="LZg-1GAi4X-xBVxX7d5g-105" style="edgeStyle=orthogonalEdgeStyle;rounded=0;orthogonalLoop=1;jettySize=auto;html=1;entryX=1;entryY=0.5;entryDx=0;entryDy=0;" edge="1" parent="1" source="LZg-1GAi4X-xBVxX7d5g-4" target="LZg-1GAi4X-xBVxX7d5g-104">
          <mxGeometry relative="1" as="geometry">
            <Array as="points">
              <mxPoint x="800" y="170" />
              <mxPoint x="800" y="870" />
            </Array>
          </mxGeometry>
        </mxCell>
        <mxCell id="LZg-1GAi4X-xBVxX7d5g-106" value="מיקום משתמש" style="edgeLabel;html=1;align=center;verticalAlign=middle;resizable=0;points=[];" vertex="1" connectable="0" parent="LZg-1GAi4X-xBVxX7d5g-105">
          <mxGeometry x="-0.085" y="1" relative="1" as="geometry">
            <mxPoint as="offset" />
          </mxGeometry>
        </mxCell>
        <mxCell id="LZg-1GAi4X-xBVxX7d5g-4" value="Users" style="shape=cylinder3;whiteSpace=wrap;html=1;boundedLbl=1;backgroundOutline=1;size=15;" vertex="1" parent="1">
          <mxGeometry x="710" y="130" width="60" height="80" as="geometry" />
        </mxCell>
        <mxCell id="LZg-1GAi4X-xBVxX7d5g-67" style="edgeStyle=orthogonalEdgeStyle;rounded=0;orthogonalLoop=1;jettySize=auto;html=1;entryX=1;entryY=1;entryDx=0;entryDy=0;" edge="1" parent="1" source="LZg-1GAi4X-xBVxX7d5g-5" target="LZg-1GAi4X-xBVxX7d5g-6">
          <mxGeometry relative="1" as="geometry">
            <Array as="points">
              <mxPoint x="270" y="370" />
              <mxPoint x="270" y="310" />
            </Array>
          </mxGeometry>
        </mxCell>
        <mxCell id="LZg-1GAi4X-xBVxX7d5g-68" value="המילה הבאה לחזרה" style="edgeLabel;html=1;align=center;verticalAlign=middle;resizable=0;points=[];" vertex="1" connectable="0" parent="LZg-1GAi4X-xBVxX7d5g-67">
          <mxGeometry x="-0.2905" y="-2" relative="1" as="geometry">
            <mxPoint as="offset" />
          </mxGeometry>
        </mxCell>
        <mxCell id="LZg-1GAi4X-xBVxX7d5g-71" style="edgeStyle=orthogonalEdgeStyle;rounded=0;orthogonalLoop=1;jettySize=auto;html=1;entryX=0.5;entryY=1;entryDx=0;entryDy=0;" edge="1" parent="1" source="LZg-1GAi4X-xBVxX7d5g-5" target="LZg-1GAi4X-xBVxX7d5g-19">
          <mxGeometry relative="1" as="geometry">
            <mxPoint x="580" y="320" as="targetPoint" />
            <Array as="points">
              <mxPoint x="581" y="370" />
            </Array>
          </mxGeometry>
        </mxCell>
        <mxCell id="LZg-1GAi4X-xBVxX7d5g-72" value="דרגת קושי" style="edgeLabel;html=1;align=center;verticalAlign=middle;resizable=0;points=[];" vertex="1" connectable="0" parent="LZg-1GAi4X-xBVxX7d5g-71">
          <mxGeometry x="0.6212" y="1" relative="1" as="geometry">
            <mxPoint as="offset" />
          </mxGeometry>
        </mxCell>
        <mxCell id="LZg-1GAi4X-xBVxX7d5g-95" style="edgeStyle=orthogonalEdgeStyle;rounded=0;orthogonalLoop=1;jettySize=auto;html=1;entryX=1;entryY=0.75;entryDx=0;entryDy=0;" edge="1" parent="1" source="LZg-1GAi4X-xBVxX7d5g-5" target="LZg-1GAi4X-xBVxX7d5g-7">
          <mxGeometry relative="1" as="geometry">
            <Array as="points">
              <mxPoint x="720" y="775" />
            </Array>
          </mxGeometry>
        </mxCell>
        <mxCell id="LZg-1GAi4X-xBVxX7d5g-96" value="פרטי מילים קשות והטיות" style="edgeLabel;html=1;align=center;verticalAlign=middle;resizable=0;points=[];" vertex="1" connectable="0" parent="LZg-1GAi4X-xBVxX7d5g-95">
          <mxGeometry x="0.5552" y="1" relative="1" as="geometry">
            <mxPoint as="offset" />
          </mxGeometry>
        </mxCell>
        <mxCell id="LZg-1GAi4X-xBVxX7d5g-5" value="User words" style="shape=cylinder3;whiteSpace=wrap;html=1;boundedLbl=1;backgroundOutline=1;size=15;" vertex="1" parent="1">
          <mxGeometry x="670" y="360" width="60" height="80" as="geometry" />
        </mxCell>
        <mxCell id="LZg-1GAi4X-xBVxX7d5g-15" value="" style="edgeStyle=orthogonalEdgeStyle;rounded=0;orthogonalLoop=1;jettySize=auto;html=1;" edge="1" parent="1" source="LZg-1GAi4X-xBVxX7d5g-6" target="LZg-1GAi4X-xBVxX7d5g-10">
          <mxGeometry relative="1" as="geometry" />
        </mxCell>
        <mxCell id="LZg-1GAi4X-xBVxX7d5g-6" value="דף&lt;div&gt;מילים&lt;/div&gt;" style="rounded=0;whiteSpace=wrap;html=1;" vertex="1" parent="1">
          <mxGeometry x="90" y="250" width="120" height="60" as="geometry" />
        </mxCell>
        <mxCell id="LZg-1GAi4X-xBVxX7d5g-102" style="edgeStyle=orthogonalEdgeStyle;rounded=0;orthogonalLoop=1;jettySize=auto;html=1;entryX=0;entryY=0.75;entryDx=0;entryDy=0;" edge="1" parent="1" source="LZg-1GAi4X-xBVxX7d5g-7" target="LZg-1GAi4X-xBVxX7d5g-6">
          <mxGeometry relative="1" as="geometry">
            <Array as="points">
              <mxPoint x="400" y="810" />
              <mxPoint x="-20" y="810" />
              <mxPoint x="-20" y="295" />
            </Array>
          </mxGeometry>
        </mxCell>
        <mxCell id="LZg-1GAi4X-xBVxX7d5g-103" value="חזרה לרשימת המילים" style="edgeLabel;html=1;align=center;verticalAlign=middle;resizable=0;points=[];" vertex="1" connectable="0" parent="LZg-1GAi4X-xBVxX7d5g-102">
          <mxGeometry x="-0.5768" y="2" relative="1" as="geometry">
            <mxPoint as="offset" />
          </mxGeometry>
        </mxCell>
        <mxCell id="LZg-1GAi4X-xBVxX7d5g-7" value="דף&lt;div&gt;חזרה והטמעה&lt;/div&gt;" style="rounded=0;whiteSpace=wrap;html=1;" vertex="1" parent="1">
          <mxGeometry x="340" y="730" width="120" height="60" as="geometry" />
        </mxCell>
        <mxCell id="LZg-1GAi4X-xBVxX7d5g-81" value="" style="edgeStyle=orthogonalEdgeStyle;rounded=0;orthogonalLoop=1;jettySize=auto;html=1;" edge="1" parent="1" source="LZg-1GAi4X-xBVxX7d5g-8" target="LZg-1GAi4X-xBVxX7d5g-1">
          <mxGeometry relative="1" as="geometry" />
        </mxCell>
        <mxCell id="LZg-1GAi4X-xBVxX7d5g-8" value="בחירת רמה" style="ellipse;whiteSpace=wrap;html=1;" vertex="1" parent="1">
          <mxGeometry x="250" y="20" width="110" height="60" as="geometry" />
        </mxCell>
        <mxCell id="LZg-1GAi4X-xBVxX7d5g-83" value="" style="edgeStyle=orthogonalEdgeStyle;rounded=0;orthogonalLoop=1;jettySize=auto;html=1;" edge="1" parent="1" source="LZg-1GAi4X-xBVxX7d5g-9" target="LZg-1GAi4X-xBVxX7d5g-6">
          <mxGeometry relative="1" as="geometry" />
        </mxCell>
        <mxCell id="LZg-1GAi4X-xBVxX7d5g-9" value="בחירת מילה" style="ellipse;whiteSpace=wrap;html=1;" vertex="1" parent="1">
          <mxGeometry x="95" y="130" width="110" height="60" as="geometry" />
        </mxCell>
        <mxCell id="LZg-1GAi4X-xBVxX7d5g-21" style="edgeStyle=orthogonalEdgeStyle;rounded=0;orthogonalLoop=1;jettySize=auto;html=1;" edge="1" parent="1" source="LZg-1GAi4X-xBVxX7d5g-10" target="LZg-1GAi4X-xBVxX7d5g-19">
          <mxGeometry relative="1" as="geometry" />
        </mxCell>
        <mxCell id="LZg-1GAi4X-xBVxX7d5g-22" value="דרגת קושי" style="edgeLabel;html=1;align=center;verticalAlign=middle;resizable=0;points=[];" vertex="1" connectable="0" parent="LZg-1GAi4X-xBVxX7d5g-21">
          <mxGeometry x="-0.075" relative="1" as="geometry">
            <mxPoint as="offset" />
          </mxGeometry>
        </mxCell>
        <mxCell id="LZg-1GAi4X-xBVxX7d5g-30" style="edgeStyle=orthogonalEdgeStyle;rounded=0;orthogonalLoop=1;jettySize=auto;html=1;entryX=0;entryY=0.5;entryDx=0;entryDy=0;" edge="1" parent="1" source="LZg-1GAi4X-xBVxX7d5g-10" target="LZg-1GAi4X-xBVxX7d5g-29">
          <mxGeometry relative="1" as="geometry">
            <Array as="points">
              <mxPoint x="300" y="540" />
            </Array>
          </mxGeometry>
        </mxCell>
        <mxCell id="LZg-1GAi4X-xBVxX7d5g-32" value="יש לחשב את ההצגה הבאה" style="edgeLabel;html=1;align=center;verticalAlign=middle;resizable=0;points=[];" vertex="1" connectable="0" parent="LZg-1GAi4X-xBVxX7d5g-30">
          <mxGeometry x="0.6301" y="-3" relative="1" as="geometry">
            <mxPoint as="offset" />
          </mxGeometry>
        </mxCell>
        <mxCell id="LZg-1GAi4X-xBVxX7d5g-80" style="edgeStyle=orthogonalEdgeStyle;rounded=0;orthogonalLoop=1;jettySize=auto;html=1;" edge="1" parent="1" source="LZg-1GAi4X-xBVxX7d5g-10">
          <mxGeometry relative="1" as="geometry">
            <mxPoint x="320" y="400" as="targetPoint" />
          </mxGeometry>
        </mxCell>
        <mxCell id="LZg-1GAi4X-xBVxX7d5g-10" value="בחירת דרגת קושי" style="ellipse;whiteSpace=wrap;html=1;" vertex="1" parent="1">
          <mxGeometry x="260" y="240" width="120" height="80" as="geometry" />
        </mxCell>
        <mxCell id="LZg-1GAi4X-xBVxX7d5g-11" style="edgeStyle=orthogonalEdgeStyle;rounded=0;orthogonalLoop=1;jettySize=auto;html=1;entryX=1.039;entryY=0.878;entryDx=0;entryDy=0;entryPerimeter=0;" edge="1" parent="1" source="LZg-1GAi4X-xBVxX7d5g-3" target="LZg-1GAi4X-xBVxX7d5g-1">
          <mxGeometry relative="1" as="geometry">
            <Array as="points">
              <mxPoint x="230" y="120" />
              <mxPoint x="230" y="93" />
            </Array>
          </mxGeometry>
        </mxCell>
        <mxCell id="LZg-1GAi4X-xBVxX7d5g-12" style="edgeStyle=orthogonalEdgeStyle;rounded=0;orthogonalLoop=1;jettySize=auto;html=1;entryX=0;entryY=0;entryDx=0;entryDy=27.5;entryPerimeter=0;" edge="1" parent="1" source="LZg-1GAi4X-xBVxX7d5g-8" target="LZg-1GAi4X-xBVxX7d5g-3">
          <mxGeometry relative="1" as="geometry" />
        </mxCell>
        <mxCell id="LZg-1GAi4X-xBVxX7d5g-13" style="edgeStyle=orthogonalEdgeStyle;rounded=0;orthogonalLoop=1;jettySize=auto;html=1;entryX=0;entryY=1;entryDx=0;entryDy=-15;entryPerimeter=0;" edge="1" parent="1" source="LZg-1GAi4X-xBVxX7d5g-9" target="LZg-1GAi4X-xBVxX7d5g-3">
          <mxGeometry relative="1" as="geometry" />
        </mxCell>
        <mxCell id="LZg-1GAi4X-xBVxX7d5g-16" value="התחברות" style="ellipse;whiteSpace=wrap;html=1;" vertex="1" parent="1">
          <mxGeometry x="510" y="20" width="110" height="70" as="geometry" />
        </mxCell>
        <mxCell id="LZg-1GAi4X-xBVxX7d5g-17" style="edgeStyle=orthogonalEdgeStyle;rounded=0;orthogonalLoop=1;jettySize=auto;html=1;entryX=0.145;entryY=0;entryDx=0;entryDy=4.35;entryPerimeter=0;" edge="1" parent="1" source="LZg-1GAi4X-xBVxX7d5g-16" target="LZg-1GAi4X-xBVxX7d5g-4">
          <mxGeometry relative="1" as="geometry" />
        </mxCell>
        <mxCell id="LZg-1GAi4X-xBVxX7d5g-18" value="פרטים אישיים" style="edgeLabel;html=1;align=center;verticalAlign=middle;resizable=0;points=[];" vertex="1" connectable="0" parent="LZg-1GAi4X-xBVxX7d5g-17">
          <mxGeometry x="-0.2362" y="1" relative="1" as="geometry">
            <mxPoint as="offset" />
          </mxGeometry>
        </mxCell>
        <mxCell id="LZg-1GAi4X-xBVxX7d5g-23" style="edgeStyle=orthogonalEdgeStyle;rounded=0;orthogonalLoop=1;jettySize=auto;html=1;entryX=0.75;entryY=0;entryDx=0;entryDy=0;" edge="1" parent="1" source="LZg-1GAi4X-xBVxX7d5g-19" target="LZg-1GAi4X-xBVxX7d5g-6">
          <mxGeometry relative="1" as="geometry">
            <Array as="points">
              <mxPoint x="580" y="230" />
              <mxPoint x="180" y="230" />
            </Array>
          </mxGeometry>
        </mxCell>
        <mxCell id="LZg-1GAi4X-xBVxX7d5g-24" value="שליחת צבע מתאים" style="edgeLabel;html=1;align=center;verticalAlign=middle;resizable=0;points=[];" vertex="1" connectable="0" parent="LZg-1GAi4X-xBVxX7d5g-23">
          <mxGeometry x="-0.0233" y="-2" relative="1" as="geometry">
            <mxPoint as="offset" />
          </mxGeometry>
        </mxCell>
        <mxCell id="LZg-1GAi4X-xBVxX7d5g-19" value="צביעת כרטיס" style="rhombus;whiteSpace=wrap;html=1;" vertex="1" parent="1">
          <mxGeometry x="540" y="200" width="80" height="80" as="geometry" />
        </mxCell>
        <mxCell id="LZg-1GAi4X-xBVxX7d5g-25" style="edgeStyle=orthogonalEdgeStyle;rounded=0;orthogonalLoop=1;jettySize=auto;html=1;entryX=0.145;entryY=1;entryDx=0;entryDy=-4.35;entryPerimeter=0;" edge="1" parent="1" source="LZg-1GAi4X-xBVxX7d5g-10" target="LZg-1GAi4X-xBVxX7d5g-4">
          <mxGeometry relative="1" as="geometry">
            <Array as="points">
              <mxPoint x="320" y="330" />
              <mxPoint x="719" y="330" />
            </Array>
          </mxGeometry>
        </mxCell>
        <mxCell id="LZg-1GAi4X-xBVxX7d5g-26" value="מיקום משתמש, ספירת מילים קשות" style="edgeLabel;html=1;align=center;verticalAlign=middle;resizable=0;points=[];" vertex="1" connectable="0" parent="LZg-1GAi4X-xBVxX7d5g-25">
          <mxGeometry x="-0.2083" y="-1" relative="1" as="geometry">
            <mxPoint as="offset" />
          </mxGeometry>
        </mxCell>
        <mxCell id="LZg-1GAi4X-xBVxX7d5g-27" style="edgeStyle=orthogonalEdgeStyle;rounded=0;orthogonalLoop=1;jettySize=auto;html=1;entryX=0;entryY=0;entryDx=0;entryDy=27.5;entryPerimeter=0;exitX=0.146;exitY=1.067;exitDx=0;exitDy=0;exitPerimeter=0;" edge="1" parent="1" source="LZg-1GAi4X-xBVxX7d5g-76" target="LZg-1GAi4X-xBVxX7d5g-5">
          <mxGeometry relative="1" as="geometry">
            <Array as="points">
              <mxPoint x="320" y="421" />
              <mxPoint x="320" y="450" />
              <mxPoint x="630" y="450" />
              <mxPoint x="630" y="388" />
            </Array>
          </mxGeometry>
        </mxCell>
        <mxCell id="LZg-1GAi4X-xBVxX7d5g-28" value="פרטי מילה, דרגת קושי, מיקום, הצגה הבאה" style="edgeLabel;html=1;align=center;verticalAlign=middle;resizable=0;points=[];" vertex="1" connectable="0" parent="LZg-1GAi4X-xBVxX7d5g-27">
          <mxGeometry x="-0.0524" y="2" relative="1" as="geometry">
            <mxPoint as="offset" />
          </mxGeometry>
        </mxCell>
        <mxCell id="LZg-1GAi4X-xBVxX7d5g-79" value="לא" style="edgeLabel;html=1;align=center;verticalAlign=middle;resizable=0;points=[];" vertex="1" connectable="0" parent="LZg-1GAi4X-xBVxX7d5g-27">
          <mxGeometry x="-0.9464" y="-1" relative="1" as="geometry">
            <mxPoint as="offset" />
          </mxGeometry>
        </mxCell>
        <mxCell id="LZg-1GAi4X-xBVxX7d5g-66" style="edgeStyle=orthogonalEdgeStyle;rounded=0;orthogonalLoop=1;jettySize=auto;html=1;entryX=1;entryY=0;entryDx=0;entryDy=0;" edge="1" parent="1" source="LZg-1GAi4X-xBVxX7d5g-29" target="LZg-1GAi4X-xBVxX7d5g-37">
          <mxGeometry relative="1" as="geometry">
            <Array as="points">
              <mxPoint x="485" y="600" />
            </Array>
          </mxGeometry>
        </mxCell>
        <mxCell id="LZg-1GAi4X-xBVxX7d5g-29" value="חישוב ההצגה הבאה" style="rhombus;whiteSpace=wrap;html=1;" vertex="1" parent="1">
          <mxGeometry x="440" y="500" width="90" height="80" as="geometry" />
        </mxCell>
        <mxCell id="LZg-1GAi4X-xBVxX7d5g-34" style="edgeStyle=orthogonalEdgeStyle;rounded=0;orthogonalLoop=1;jettySize=auto;html=1;entryX=0.519;entryY=0.1;entryDx=0;entryDy=0;entryPerimeter=0;" edge="1" parent="1" source="LZg-1GAi4X-xBVxX7d5g-5" target="LZg-1GAi4X-xBVxX7d5g-29">
          <mxGeometry relative="1" as="geometry">
            <Array as="points">
              <mxPoint x="700" y="460" />
              <mxPoint x="487" y="460" />
            </Array>
          </mxGeometry>
        </mxCell>
        <mxCell id="LZg-1GAi4X-xBVxX7d5g-36" value="הצגה הבאה" style="edgeLabel;html=1;align=center;verticalAlign=middle;resizable=0;points=[];" vertex="1" connectable="0" parent="LZg-1GAi4X-xBVxX7d5g-34">
          <mxGeometry x="-0.1113" y="-1" relative="1" as="geometry">
            <mxPoint as="offset" />
          </mxGeometry>
        </mxCell>
        <mxCell id="LZg-1GAi4X-xBVxX7d5g-40" style="edgeStyle=orthogonalEdgeStyle;rounded=0;orthogonalLoop=1;jettySize=auto;html=1;entryX=0;entryY=0.75;entryDx=0;entryDy=0;" edge="1" parent="1" source="LZg-1GAi4X-xBVxX7d5g-37" target="LZg-1GAi4X-xBVxX7d5g-7">
          <mxGeometry relative="1" as="geometry">
            <Array as="points">
              <mxPoint x="230" y="610" />
              <mxPoint x="230" y="775" />
            </Array>
          </mxGeometry>
        </mxCell>
        <mxCell id="LZg-1GAi4X-xBVxX7d5g-42" value="כן" style="edgeLabel;html=1;align=center;verticalAlign=middle;resizable=0;points=[];" vertex="1" connectable="0" parent="LZg-1GAi4X-xBVxX7d5g-40">
          <mxGeometry x="-0.3732" y="-1" relative="1" as="geometry">
            <mxPoint as="offset" />
          </mxGeometry>
        </mxCell>
        <mxCell id="LZg-1GAi4X-xBVxX7d5g-98" style="edgeStyle=orthogonalEdgeStyle;rounded=0;orthogonalLoop=1;jettySize=auto;html=1;entryX=0;entryY=0.5;entryDx=0;entryDy=0;" edge="1" parent="1" source="LZg-1GAi4X-xBVxX7d5g-37" target="LZg-1GAi4X-xBVxX7d5g-97">
          <mxGeometry relative="1" as="geometry">
            <Array as="points">
              <mxPoint x="230" y="610" />
              <mxPoint x="230" y="680" />
              <mxPoint x="540" y="680" />
            </Array>
          </mxGeometry>
        </mxCell>
        <mxCell id="LZg-1GAi4X-xBVxX7d5g-37" value="מספיק מילים קשות?" style="shape=parallelogram;perimeter=parallelogramPerimeter;whiteSpace=wrap;html=1;fixedSize=1;" vertex="1" parent="1">
          <mxGeometry x="290" y="600" width="130" height="20" as="geometry" />
        </mxCell>
        <mxCell id="LZg-1GAi4X-xBVxX7d5g-49" style="edgeStyle=orthogonalEdgeStyle;rounded=0;orthogonalLoop=1;jettySize=auto;html=1;entryX=0.5;entryY=1;entryDx=0;entryDy=0;" edge="1" parent="1" source="LZg-1GAi4X-xBVxX7d5g-43" target="LZg-1GAi4X-xBVxX7d5g-48">
          <mxGeometry relative="1" as="geometry" />
        </mxCell>
        <mxCell id="LZg-1GAi4X-xBVxX7d5g-50" value="כן" style="edgeLabel;html=1;align=center;verticalAlign=middle;resizable=0;points=[];" vertex="1" connectable="0" parent="LZg-1GAi4X-xBVxX7d5g-49">
          <mxGeometry x="0.0049" y="-3" relative="1" as="geometry">
            <mxPoint x="1" as="offset" />
          </mxGeometry>
        </mxCell>
        <mxCell id="LZg-1GAi4X-xBVxX7d5g-43" value="יש עוד מילים ברשימה?" style="shape=parallelogram;perimeter=parallelogramPerimeter;whiteSpace=wrap;html=1;fixedSize=1;" vertex="1" parent="1">
          <mxGeometry x="135" y="540" width="135" height="30" as="geometry" />
        </mxCell>
        <mxCell id="LZg-1GAi4X-xBVxX7d5g-46" style="edgeStyle=orthogonalEdgeStyle;rounded=0;orthogonalLoop=1;jettySize=auto;html=1;entryX=0.108;entryY=1.056;entryDx=0;entryDy=0;entryPerimeter=0;" edge="1" parent="1" source="LZg-1GAi4X-xBVxX7d5g-37" target="LZg-1GAi4X-xBVxX7d5g-43">
          <mxGeometry relative="1" as="geometry" />
        </mxCell>
        <mxCell id="LZg-1GAi4X-xBVxX7d5g-47" value="לא" style="edgeLabel;html=1;align=center;verticalAlign=middle;resizable=0;points=[];" vertex="1" connectable="0" parent="LZg-1GAi4X-xBVxX7d5g-46">
          <mxGeometry x="-0.1035" y="2" relative="1" as="geometry">
            <mxPoint as="offset" />
          </mxGeometry>
        </mxCell>
        <mxCell id="LZg-1GAi4X-xBVxX7d5g-57" style="edgeStyle=orthogonalEdgeStyle;rounded=0;orthogonalLoop=1;jettySize=auto;html=1;entryX=0;entryY=0.5;entryDx=0;entryDy=0;" edge="1" parent="1" source="LZg-1GAi4X-xBVxX7d5g-48" target="LZg-1GAi4X-xBVxX7d5g-6">
          <mxGeometry relative="1" as="geometry" />
        </mxCell>
        <mxCell id="LZg-1GAi4X-xBVxX7d5g-58" value="לא" style="edgeLabel;html=1;align=center;verticalAlign=middle;resizable=0;points=[];" vertex="1" connectable="0" parent="LZg-1GAi4X-xBVxX7d5g-57">
          <mxGeometry x="-0.1365" y="1" relative="1" as="geometry">
            <mxPoint as="offset" />
          </mxGeometry>
        </mxCell>
        <mxCell id="LZg-1GAi4X-xBVxX7d5g-62" style="edgeStyle=orthogonalEdgeStyle;rounded=0;orthogonalLoop=1;jettySize=auto;html=1;entryX=0;entryY=0.5;entryDx=0;entryDy=0;" edge="1" parent="1" source="LZg-1GAi4X-xBVxX7d5g-48" target="LZg-1GAi4X-xBVxX7d5g-61">
          <mxGeometry relative="1" as="geometry">
            <Array as="points">
              <mxPoint x="60" y="430" />
              <mxPoint x="155" y="430" />
              <mxPoint x="155" y="390" />
            </Array>
          </mxGeometry>
        </mxCell>
        <mxCell id="LZg-1GAi4X-xBVxX7d5g-63" value="כן" style="edgeLabel;html=1;align=center;verticalAlign=middle;resizable=0;points=[];" vertex="1" connectable="0" parent="LZg-1GAi4X-xBVxX7d5g-62">
          <mxGeometry x="-0.16" y="3" relative="1" as="geometry">
            <mxPoint as="offset" />
          </mxGeometry>
        </mxCell>
        <mxCell id="LZg-1GAi4X-xBVxX7d5g-48" value="יש מילה שזמן החזרה שלה הגיע?" style="shape=parallelogram;perimeter=parallelogramPerimeter;whiteSpace=wrap;html=1;fixedSize=1;" vertex="1" parent="1">
          <mxGeometry y="460" width="120" height="40" as="geometry" />
        </mxCell>
        <mxCell id="LZg-1GAi4X-xBVxX7d5g-64" value="" style="edgeStyle=orthogonalEdgeStyle;rounded=0;orthogonalLoop=1;jettySize=auto;html=1;" edge="1" parent="1" source="LZg-1GAi4X-xBVxX7d5g-51" target="LZg-1GAi4X-xBVxX7d5g-61">
          <mxGeometry relative="1" as="geometry" />
        </mxCell>
        <mxCell id="LZg-1GAi4X-xBVxX7d5g-65" value="כן" style="edgeLabel;html=1;align=center;verticalAlign=middle;resizable=0;points=[];" vertex="1" connectable="0" parent="LZg-1GAi4X-xBVxX7d5g-64">
          <mxGeometry x="-0.4667" y="-1" relative="1" as="geometry">
            <mxPoint as="offset" />
          </mxGeometry>
        </mxCell>
        <mxCell id="LZg-1GAi4X-xBVxX7d5g-85" style="edgeStyle=orthogonalEdgeStyle;rounded=0;orthogonalLoop=1;jettySize=auto;html=1;entryX=1;entryY=0.5;entryDx=0;entryDy=0;" edge="1" parent="1" source="LZg-1GAi4X-xBVxX7d5g-51" target="LZg-1GAi4X-xBVxX7d5g-84">
          <mxGeometry relative="1" as="geometry">
            <Array as="points">
              <mxPoint x="220" y="450" />
              <mxPoint x="130" y="450" />
              <mxPoint x="130" y="640" />
              <mxPoint x="160" y="640" />
              <mxPoint x="160" y="750" />
            </Array>
          </mxGeometry>
        </mxCell>
        <mxCell id="LZg-1GAi4X-xBVxX7d5g-86" value="לא" style="edgeLabel;html=1;align=center;verticalAlign=middle;resizable=0;points=[];" vertex="1" connectable="0" parent="LZg-1GAi4X-xBVxX7d5g-85">
          <mxGeometry x="0.3644" y="1" relative="1" as="geometry">
            <mxPoint as="offset" />
          </mxGeometry>
        </mxCell>
        <mxCell id="LZg-1GAi4X-xBVxX7d5g-51" value="נותרו מילים לחזרה?" style="shape=parallelogram;perimeter=parallelogramPerimeter;whiteSpace=wrap;html=1;fixedSize=1;" vertex="1" parent="1">
          <mxGeometry x="160" y="460" width="120" height="40" as="geometry" />
        </mxCell>
        <mxCell id="LZg-1GAi4X-xBVxX7d5g-52" style="edgeStyle=orthogonalEdgeStyle;rounded=0;orthogonalLoop=1;jettySize=auto;html=1;entryX=0.772;entryY=0.889;entryDx=0;entryDy=0;entryPerimeter=0;" edge="1" parent="1" source="LZg-1GAi4X-xBVxX7d5g-43" target="LZg-1GAi4X-xBVxX7d5g-51">
          <mxGeometry relative="1" as="geometry" />
        </mxCell>
        <mxCell id="LZg-1GAi4X-xBVxX7d5g-53" value="לא" style="edgeLabel;html=1;align=center;verticalAlign=middle;resizable=0;points=[];" vertex="1" connectable="0" parent="LZg-1GAi4X-xBVxX7d5g-52">
          <mxGeometry x="-0.0392" y="-2" relative="1" as="geometry">
            <mxPoint as="offset" />
          </mxGeometry>
        </mxCell>
        <mxCell id="LZg-1GAi4X-xBVxX7d5g-61" value="קבלת המילה הבאה לחזרה" style="rhombus;whiteSpace=wrap;html=1;" vertex="1" parent="1">
          <mxGeometry x="190" y="350" width="80" height="80" as="geometry" />
        </mxCell>
        <mxCell id="LZg-1GAi4X-xBVxX7d5g-69" style="edgeStyle=orthogonalEdgeStyle;rounded=0;orthogonalLoop=1;jettySize=auto;html=1;entryX=0;entryY=0;entryDx=0;entryDy=15;entryPerimeter=0;" edge="1" parent="1" source="LZg-1GAi4X-xBVxX7d5g-61" target="LZg-1GAi4X-xBVxX7d5g-5">
          <mxGeometry relative="1" as="geometry">
            <Array as="points">
              <mxPoint x="610" y="390" />
              <mxPoint x="610" y="375" />
            </Array>
          </mxGeometry>
        </mxCell>
        <mxCell id="LZg-1GAi4X-xBVxX7d5g-70" value="שלח את המילה הבאה לחזרה, עדכון מיקום" style="edgeLabel;html=1;align=center;verticalAlign=middle;resizable=0;points=[];" vertex="1" connectable="0" parent="LZg-1GAi4X-xBVxX7d5g-69">
          <mxGeometry x="-0.2096" relative="1" as="geometry">
            <mxPoint as="offset" />
          </mxGeometry>
        </mxCell>
        <mxCell id="LZg-1GAi4X-xBVxX7d5g-76" value="המילה דורגה ברמת קושי 1?" style="shape=parallelogram;perimeter=parallelogramPerimeter;whiteSpace=wrap;html=1;fixedSize=1;" vertex="1" parent="1">
          <mxGeometry x="300" y="400" width="160" height="20" as="geometry" />
        </mxCell>
        <mxCell id="LZg-1GAi4X-xBVxX7d5g-88" style="edgeStyle=orthogonalEdgeStyle;rounded=0;orthogonalLoop=1;jettySize=auto;html=1;entryX=0;entryY=0.25;entryDx=0;entryDy=0;" edge="1" parent="1" source="LZg-1GAi4X-xBVxX7d5g-84" target="LZg-1GAi4X-xBVxX7d5g-6">
          <mxGeometry relative="1" as="geometry">
            <mxPoint x="80" y="330" as="targetPoint" />
            <Array as="points">
              <mxPoint x="-40" y="750" />
              <mxPoint x="-40" y="265" />
            </Array>
          </mxGeometry>
        </mxCell>
        <mxCell id="LZg-1GAi4X-xBVxX7d5g-89" value="כן" style="edgeLabel;html=1;align=center;verticalAlign=middle;resizable=0;points=[];" vertex="1" connectable="0" parent="LZg-1GAi4X-xBVxX7d5g-88">
          <mxGeometry x="-0.918" y="1" relative="1" as="geometry">
            <mxPoint as="offset" />
          </mxGeometry>
        </mxCell>
        <mxCell id="LZg-1GAi4X-xBVxX7d5g-84" value="תרצה להמשיך לרשימה הבאה?" style="ellipse;whiteSpace=wrap;html=1;" vertex="1" parent="1">
          <mxGeometry x="20" y="710" width="120" height="80" as="geometry" />
        </mxCell>
        <mxCell id="LZg-1GAi4X-xBVxX7d5g-92" style="edgeStyle=orthogonalEdgeStyle;rounded=0;orthogonalLoop=1;jettySize=auto;html=1;entryX=0.855;entryY=1;entryDx=0;entryDy=-4.35;entryPerimeter=0;" edge="1" parent="1" source="LZg-1GAi4X-xBVxX7d5g-37" target="LZg-1GAi4X-xBVxX7d5g-4">
          <mxGeometry relative="1" as="geometry">
            <Array as="points">
              <mxPoint x="230" y="610" />
              <mxPoint x="230" y="710" />
              <mxPoint x="761" y="710" />
            </Array>
          </mxGeometry>
        </mxCell>
        <mxCell id="LZg-1GAi4X-xBVxX7d5g-93" value="איפוס ספירת מילים קשות" style="edgeLabel;html=1;align=center;verticalAlign=middle;resizable=0;points=[];" vertex="1" connectable="0" parent="LZg-1GAi4X-xBVxX7d5g-92">
          <mxGeometry x="-0.2762" y="2" relative="1" as="geometry">
            <mxPoint as="offset" />
          </mxGeometry>
        </mxCell>
        <mxCell id="LZg-1GAi4X-xBVxX7d5g-99" style="edgeStyle=orthogonalEdgeStyle;rounded=0;orthogonalLoop=1;jettySize=auto;html=1;" edge="1" parent="1" source="LZg-1GAi4X-xBVxX7d5g-97">
          <mxGeometry relative="1" as="geometry">
            <mxPoint x="710" y="440" as="targetPoint" />
          </mxGeometry>
        </mxCell>
        <mxCell id="LZg-1GAi4X-xBVxX7d5g-97" value="בקשה לקבלת מילים קשות והטיות" style="rhombus;whiteSpace=wrap;html=1;" vertex="1" parent="1">
          <mxGeometry x="540" y="600" width="90" height="90" as="geometry" />
        </mxCell>
        <mxCell id="LZg-1GAi4X-xBVxX7d5g-108" style="edgeStyle=orthogonalEdgeStyle;rounded=0;orthogonalLoop=1;jettySize=auto;html=1;entryX=0;entryY=0.75;entryDx=0;entryDy=0;" edge="1" parent="1" source="LZg-1GAi4X-xBVxX7d5g-104" target="LZg-1GAi4X-xBVxX7d5g-6">
          <mxGeometry relative="1" as="geometry">
            <Array as="points">
              <mxPoint x="-20" y="870" />
              <mxPoint x="-20" y="295" />
            </Array>
          </mxGeometry>
        </mxCell>
        <mxCell id="LZg-1GAi4X-xBVxX7d5g-109" value="חזרה לרשימת המילים" style="edgeLabel;html=1;align=center;verticalAlign=middle;resizable=0;points=[];" vertex="1" connectable="0" parent="LZg-1GAi4X-xBVxX7d5g-108">
          <mxGeometry x="-0.531" y="-1" relative="1" as="geometry">
            <mxPoint as="offset" />
          </mxGeometry>
        </mxCell>
        <mxCell id="LZg-1GAi4X-xBVxX7d5g-104" value="אייקון &#39;חתול&#39;&lt;div&gt;חזרה לרשימת המילים&lt;/div&gt;" style="ellipse;whiteSpace=wrap;html=1;" vertex="1" parent="1">
          <mxGeometry x="590" y="830" width="120" height="80" as="geometry" />
        </mxCell>
      </root>
    </mxGraphModel>
  </diagram>
</mxfile>
